<?xml version="1.0" encoding="UTF-8"?>
<svg id="Layer_1" xmlns="http://www.w3.org/2000/svg" version="1.1" viewBox="0 0 702.9 222.3">
  <!-- Generator: Adobe Illustrator 30.5.1, SVG Export Plug-In . SVG Version: 2.1.4 Build 3)  -->
  <defs>
    <style>
      .st0 {
        isolation: isolate;
      }

      .st1 {
        fill: #fff;
      }
    </style>
  </defs>
  <g class="st0">
    <path class="st1" d="M257.7,122.2c-8.8-7.9-11-18.2-11-26.8s2.1-16.7,10.1-24.7c5.4-5.4,13.7-9.7,27.6-9.7s8.7.3,13.1,1.1c3.4.6,6.3,1.2,9.2,1.4,1,0,1.2.4,1.2,1s-.3,1.8-.5,5.1c-.2,3-.2,8-.3,9.3s-.3,1.9-.8,1.9-.7-.6-.7-1.9c0-3.5-1.5-7.2-3.8-9.2-3.2-2.7-10.1-5.2-18.1-5.2-12,0-17.6,3.5-20.8,6.6-6.6,6.3-8.1,14.4-8.1,23.6,0,17.3,13.3,33.1,32.7,33.1s12.1-.8,15.8-4.5c1.9-2,3.1-6,3.4-7.6.2-1,.4-1.4.9-1.4s.6.6.6,1.4-1.1,8.5-2,11.6c-.5,1.7-.7,1.9-2.4,2.6-3.6,1.4-10.5,2.1-16.3,2.1-13.6,0-22.7-3.3-29.9-9.8h0Z"/>
    <path class="st1" d="M349.3,71.4c17.9,0,31.5,10.9,31.5,28.9s-12.8,31.4-32,31.4-31.1-16.4-31.1-30.2,9.6-30,31.6-30h0ZM351.1,128.5c7.1,0,21.5-3.8,21.5-26.1s-11.2-28.2-23.8-28.2-22.9,8.3-22.9,25.1,10.8,29.1,25.2,29.1h0Z"/>
    <path class="st1" d="M397.5,94.7c0-11.9,0-14.1-.2-16.6-.2-2.6-.6-3.9-3.3-4.2-.6,0-2-.2-2.7-.2s-.6-.4-.6-.6c0-.4.4-.6,1.3-.6,3.6,0,9,.2,9.4.2.8,0,7.5-.2,10-.2,5.1,0,10.7.4,14.8,3.3,2,1.4,5.5,5.2,5.5,10.5s-2.4,11.2-9.8,17.6c6.5,8.1,12,15.1,16.6,19.9,4.2,4.3,6.9,5.1,8.9,5.3,1.5.3,2.4.3,2.8.3s.7.4.7.6c0,.4-.5.6-1.9.6h-5c-4.5,0-6.5-.4-8.5-1.5-3.4-1.8-6.3-5.5-10.9-11.3-3.4-4.2-6.9-9.1-8.6-11.2-.4-.4-.5-.4-1.1-.4l-10.1-.2c-.4,0-.5.2-.5.6v1.8c0,7.4,0,13.4.4,16.6.3,2.3.7,3.7,3.2,4.1,1.1.2,2.8.4,3.5.4s.6.4.6.6-.4.6-1.3.6c-4.3,0-9.4-.3-9.8-.3s-5.4.3-7.9.3-1.3-.2-1.3-.6.2-.6.6-.6c.7,0,1.7-.2,2.4-.4,1.5-.4,1.7-1.8,2.1-4.1.5-3.2.5-9.2.5-16.6v-13.6h.2,0ZM404.3,101.3c0,.4.2.7.5,1,1.2.6,5.2,1.2,8.8,1.2s4.1,0,6-1.4c2.7-1.8,4.8-5.9,4.8-11.8,0-9.6-5.2-15.1-13.8-15.1s-4.9.3-5.7.4c-.4.2-.6.4-.6.9v24.7h0Z"/>
    <path class="st1" d="M471.5,108.3c0,7.4,0,13.5.4,16.6.3,2.3.6,3.7,3.1,4.1,1.1.2,2.9.4,3.6.4s.6.4.6.6-.4.6-1.3.6c-4.3,0-9.4-.3-9.9-.3s-5.9.3-8.2.3-1.3-.2-1.3-.6.2-.5.6-.5c.7,0,1.6-.2,2.4-.4,1.6-.4,2.1-1.9,2.4-4.2.4-3.2.4-9.2.4-16.6v-32.3l-11.5.2c-5,0-6.9.6-8,2.4-.9,1.4-1,1.9-1.3,2.4-.2.6-.5.7-.8.7s-.5-.2-.5-.6c0-.8,1.5-7.7,1.7-8.3,0-.4.5-1.4.8-1.4.5,0,1.4.6,3.5.9,2.3.3,5.3.4,6.2.4h30c2.6,0,4.4-.2,5.7-.4,1.2-.2,1.9-.4,2.3-.4s.4.4.4.9c0,2.3-.3,7.9-.3,8.8s-.4,1-.7,1-.5-.3-.6-1.4v-.8c-.4-2.3-2.1-4.1-9.7-4.2l-10-.2v32.3h0Z"/>
    <path class="st1" d="M509.3,94.7c0-11.9,0-14.1-.2-16.6-.2-2.6-.6-3.9-3.3-4.2-.6,0-2-.2-2.7-.2s-.6-.4-.6-.6c0-.4.4-.6,1.3-.6,3.6,0,8.8.2,9.2.2h19c1.5,0,3-.4,3.6-.4s.7-.4,1.1-.4.4.4.4.7c0,.5-.5,1.4-.6,3.6,0,.7-.3,4.2-.5,5.1,0,.4-.4.8-.7.8s-.6-.4-.6-1,0-1.8-.5-2.7c-.5-1.3-1.4-1.8-5.7-2.3-1.4-.2-10.6-.3-11.5-.3s-.5.3-.5.8v20.9c0,.5,0,.8.5.8,1,0,11.5,0,13.3-.2,1.9-.2,3.1-.3,3.9-1.1.5-.5.9-1,1.2-1s.5.2.5.6-.5,1.7-.6,4.2c-.2,1.5-.4,4.4-.4,5s-.2,1.4-.7,1.4-.5-.3-.5-.7c0-.7,0-1.5-.4-2.5-.3-1.1-1-2-4.1-2.4-2.2-.3-10.7-.4-12-.4s-.5.3-.5.5v19.5c.2,5.2,1.6,6.1,9.5,6.1s5.9,0,8-.8c2.1-.9,3.2-2.3,3.6-5.3.2-.9.4-1.2.8-1.2s.5.6.5,1.2-.6,5.8-1.1,7.4c-.5,2-1.4,2-4.4,2-6,0-10.6-.2-13.8-.3-3.3-.2-5.4-.2-6.6-.2h-3.4c-1.5,0-3.3.2-4.6.2s-1.3-.2-1.3-.6.2-.6.6-.6c.7,0,1.7-.3,2.4-.4,1.5-.3,1.7-1.8,2.1-4.1.5-3.2.5-9.2.5-16.6v-13.6h0l-.2.3h0Z"/>
    <path class="st1" d="M566.4,108.5c0,11.3.2,15.9,1.6,17.3,1.3,1.3,4.3,1.8,10.6,1.8s7.7,0,9.6-2.4c1-1.2,1.6-2.8,1.9-4.3,0-.5.4-1,.8-1s.5.4.5,1.2-.5,5.4-1.2,7.7c-.5,1.8-.8,2.1-5.1,2.1s-10.1,0-13.8-.3c-3.6,0-6.3-.2-8.7-.2h-3.3c-1.6,0-3.3.2-4.6.2s-1.3-.2-1.3-.6.2-.6.6-.6c.7,0,1.7-.2,2.4-.4,1.5-.4,1.7-1.8,2.1-4.1.5-3.2.5-9.2.5-16.6v-13.6c0-11.9,0-14.1-.2-16.6-.2-2.6-.6-3.9-3.3-4.2-.6,0-2-.2-2.7-.2s-.6-.4-.6-.6c0-.4.4-.6,1.3-.6,3.6,0,8.6.2,9,.2s6.3-.2,8.8-.2,1.3.2,1.3.6-.4.5-.6.5c-.5,0-1.7,0-2.6.2-2.3.4-2.8,1.6-3,4.3v30.3h0Z"/>
    <path class="st1" d="M614.8,108.5c0,11.3.2,15.9,1.6,17.3,1.3,1.3,4.3,1.8,10.6,1.8s7.7,0,9.6-2.4c1-1.2,1.6-2.8,1.9-4.3,0-.5.4-1,.8-1s.5.4.5,1.2-.5,5.4-1.2,7.7c-.5,1.8-.8,2.1-5.1,2.1s-10.1,0-13.8-.3c-3.6,0-6.3-.2-8.7-.2h-3.3c-1.6,0-3.3.2-4.6.2s-1.3-.2-1.3-.6.2-.6.6-.6c.7,0,1.7-.2,2.4-.4,1.5-.4,1.7-1.8,2.1-4.1.5-3.2.5-9.2.5-16.6v-13.6c0-11.9,0-14.1-.2-16.6-.2-2.6-.6-3.9-3.3-4.2-.6,0-2-.2-2.7-.2s-.6-.4-.6-.6c0-.4.4-.6,1.3-.6,3.6,0,8.6.2,9,.2s6.3-.2,8.8-.2,1.3.2,1.3.6-.4.5-.6.5c-.5,0-1.7,0-2.6.2-2.3.4-2.8,1.6-3,4.3v30.3h0Z"/>
    <path class="st1" d="M669,74c1-2.5,1.4-3,1.9-3,.8,0,1.1,1.1,1.9,2.8,1.5,3.3,14.2,35,19.1,46.7,2.9,6.9,5.1,7.9,6.8,8.4,1.2.4,2.3.4,3.2.4s1,.2,1,.6-.9.6-1.8.6-7.1,0-12.6-.2c-1.5,0-2.8,0-2.8-.5s.2-.4.5-.5c.5-.2,1.3-.8.7-2.1l-7.2-17.6c-.2-.4-.3-.4-.7-.4h-18.4c-.4,0-.6.2-.8.6l-4.5,12.3c-.7,1.9-1.2,3.8-1.2,5.2s1.4,2.1,2.7,2.1h.7c.6,0,.8.3.8.6s-.5.6-1.2.6c-1.9,0-6.2-.3-7.2-.3s-4.8.3-8,.3-1.5-.2-1.5-.6.4-.6.7-.6c.5,0,1.7,0,2.3-.2,3.6-.4,5.2-3.2,6.7-7.1l18.7-48.2h.2,0ZM677.8,106.1c.4,0,.4-.2.3-.5l-7.9-21.1c-.5-1.2-.9-1.2-1.4,0l-7.4,21.1c0,.4,0,.5.3.5h16.1Z"/>
  </g>
  <g class="st0">
    <path class="st1" d="M323.4,159c.6-1.7.8-2,1.1-2s.5.3,1.1,1.9c.8,2,8.9,23.4,12.1,31.3,1.9,4.6,3.4,5.4,4.5,5.8.8.3,1.6.3,2.1.3s.5,0,.5.3-.5.4-1,.4-4.6,0-8.1-.1c-1,0-1.6,0-1.6-.4s.2-.3.4-.4c.3-.1.6-.6.3-1.4l-4.8-12.8c-.1-.2-.2-.3-.5-.3h-11.2c-.3,0-.4.2-.5.4l-3.1,9.2c-.5,1.3-.7,2.5-.7,3.5s1.1,1.5,2,1.5h.5c.4,0,.5.1.5.3,0,.3-.3.4-.8.4-1.2,0-3.5-.2-4-.2s-3.4.2-5.9.2-1-.1-1-.4.2-.3.5-.3,1.1,0,1.5-.1c2.4-.3,3.4-2.3,4.4-4.9l11.8-32.3h0ZM328.8,179.8c.3,0,.3-.2.2-.4l-4.9-14c-.3-.8-.5-.8-.8,0l-4.6,14c-.1.3,0,.4.2.4h9.9,0Z"/>
    <path class="st1" d="M351.1,176.4c0-6.9,0-8.1-.1-9.5-.1-1.5-.4-2.2-1.9-2.4-.4,0-1.1-.1-1.6-.1s-.4-.2-.4-.4c0-.3.2-.4.7-.4,2.1,0,5,.1,5.3.1.5,0,3.4-.1,6.1-.1,4.6,0,12.9-.4,18.3,5,2.3,2.3,4.5,6,4.5,11.2s-2.4,9.8-4.9,12.4c-2,2-6.1,5.1-13.9,5.1s-4.4-.2-6.4-.3c-2-.2-3.5-.3-3.7-.3h-1.9c-.9,0-2,.1-2.8.1s-.7-.1-.7-.4.1-.4.4-.4,1-.1,1.4-.2c.9-.2,1-1,1.2-2.3.3-1.8.3-5.3.3-9.6v-7.8h0v.3h.1ZM355.2,181.2v9.6c0,1.1.2,2.7.5,3.2.6.8,2.2,1.8,7.6,1.8s7.9-1.4,10.7-4c2.4-2.2,3.6-6.4,3.6-10.5s-2.4-9.2-4.3-11.1c-4.3-4.4-9.3-4.9-14.8-4.9s-2.3.2-2.8.3c-.4.2-.6.4-.6.9v14.7h0Z"/>
    <path class="st1" d="M403.1,191.2c2.6-5.9,8.6-21,9.6-24.1.2-.7.4-1.3.4-1.7s-.2-.8-.6-.9c-.5-.2-1-.2-1.6-.2s-.5-.2-.5-.4.3-.4,1-.4c1.8,0,3.9.1,4.5.1s2.2-.1,3.6-.1.7.1.7.3-.2.4-.5.4-1.4,0-2.2.5c-.6.4-1.4,1-2.5,4.1-.5,1.2-2.8,6.5-5.1,11.9-2.8,6.4-4.8,11.2-5.9,13.4-1.2,2.6-1.5,3.3-2,3.3s-.8-.6-1.7-2.7l-11.2-27.1c-1-2.5-1.7-3-3.2-3.3-.7-.2-1.5-.2-1.8-.2s-.4-.3-.4-.4c0-.3.5-.3,1.2-.3,2.2,0,4.8.1,5.4.1s2.5-.1,4.3-.1,1.2.1,1.2.3-.2.4-.5.4c-.5,0-1.2,0-1.7.2s-.5.5-.5.8c0,.6.6,1.9,1.2,3.7l8.6,22.2.2.2Z"/>
    <path class="st1" d="M439.7,163c10.3,0,18.1,6.3,18.1,16.6s-7.3,18-18.3,18-17.9-9.4-17.9-17.3,5.5-17.2,18.1-17.2h0ZM440.7,195.7c4.1,0,12.4-2.2,12.4-14.9s-6.4-16.1-13.6-16.1-13.1,4.8-13.1,14.4,6.2,16.7,14.4,16.7h0Z"/>
    <path class="st1" d="M490.2,185.7c0-3.6,0-4.1-2-4.5-.4,0-1.1-.1-1.6-.1s-.4-.2-.4-.4c0-.3.2-.4.7-.4,2.1,0,5.1.1,5.4.1s3.1-.1,4.5-.1.7,0,.7.4-.2.4-.4.4c-.3,0-.6,0-1.1.1-1.2.2-1.6.9-1.7,2.4v9.5c0,2,0,2.1-.6,2.4-2.9,1.5-7.1,2-9.7,2s-10-.4-15-4.7c-2.8-2.3-5.5-7.1-5.5-12.6s3.6-12,7.6-14.5c4.1-2.5,8.7-2.8,12.1-2.8s6.1.5,7,.7,2.5.5,3.7.5.6.2.6.4c0,.6-.3,1.8-.3,6.2s-.2.9-.5.9-.3-.3-.3-.7c0-.6-.3-1.9-1-2.9-1.1-1.7-4.6-3.4-10.5-3.4s-6.1.2-9.5,2.9c-2.6,2-4.5,6-4.5,11.1s3.2,10.7,4.8,12.2c3.6,3.4,7.5,4.6,11.7,4.6s3.7-.2,4.9-.8c.6-.3.9-.5.9-1.4v-7.6h0Z"/>
    <path class="st1" d="M515,164.5c.6-1.4.8-1.7,1.1-1.7.5,0,.6.6,1.1,1.6.8,1.9,8.2,20.1,11,26.8,1.7,3.9,2.9,4.5,3.9,4.8.7.2,1.3.3,1.8.3s.6.1.6.4-.5.4-1,.4-4,0-7.2-.1c-.9,0-1.6,0-1.6-.3s0-.2.3-.3.7-.5.4-1.2l-4.1-10.1c0-.2-.2-.3-.4-.3h-10.5c-.2,0-.4.1-.5.4l-2.6,7.1c-.4,1.1-.7,2.2-.7,3s.8,1.2,1.6,1.2h.4c.4,0,.5.2.5.4s-.3.4-.7.4c-1.1,0-3.6-.2-4.1-.2s-2.8.2-4.6.2-.9-.1-.9-.4.2-.4.4-.4c.3,0,1,0,1.3-.1,2.1-.3,3-1.8,3.8-4.1l10.7-27.6v-.2h0ZM520.1,182.9c.2,0,.2-.1.2-.3l-4.5-12.1c-.3-.7-.5-.7-.8,0l-4.3,12.1c0,.2,0,.3.2.3h9.2,0Z"/>
    <path class="st1" d="M540.5,176.4v-9.5c0-1.5-.4-2.2-1.9-2.4-.4,0-1.1-.1-1.6-.1s-.4-.2-.4-.4c0-.3.2-.4.7-.4,2.1,0,5,.1,5.3.1.5,0,3.4-.1,6.1-.1,4.6,0,12.9-.4,18.3,5,2.3,2.3,4.5,6,4.5,11.2s-2.4,9.8-4.9,12.4c-2,2-6.1,5.1-13.9,5.1s-4.4-.2-6.4-.3c-2-.2-3.5-.3-3.7-.3h-1.9c-.9,0-2,.1-2.8.1s-.7-.1-.7-.4,0-.4.4-.4,1-.1,1.4-.2c.9-.2,1-1,1.2-2.3.3-1.8.3-5.3.3-9.6v-7.8h0v.3h0ZM544.6,181.2v9.6c0,1.1.2,2.7.5,3.2.6.8,2.2,1.8,7.6,1.8s7.9-1.4,10.7-4c2.4-2.2,3.6-6.4,3.6-10.5s-2.4-9.2-4.3-11.1c-4.3-4.4-9.3-4.9-14.8-4.9s-2.3.2-2.8.3c-.4.2-.6.4-.6.9v14.7h0Z"/>
    <path class="st1" d="M595.4,163c10.3,0,18.1,6.3,18.1,16.6s-7.3,18-18.3,18-17.9-9.4-17.9-17.3,5.5-17.2,18.1-17.2h0ZM596.4,195.7c4.1,0,12.3-2.2,12.3-14.9s-6.4-16.1-13.7-16.1-13.1,4.8-13.1,14.4,6.2,16.7,14.4,16.7h0Z"/>
    <path class="st1" d="M620.6,196.4c-.6-.3-.7-.5-.7-1.7,0-2.2.2-3.9.3-4.7,0-.5,0-.7.4-.7s.4.2.4.5,0,1,.2,1.6c.7,3.2,4.2,4.4,7.2,4.4,4.5,0,6.8-2.5,6.8-5.9s-1.7-4.7-5.8-7.7l-2.1-1.6c-4.9-3.7-6.5-6.4-6.5-9.4,0-5.2,4.1-8.3,10.1-8.3s3.6.3,4.7.5c.9.2,1.2.2,1.6.2s.5,0,.5.3-.2,1.7-.2,4.7,0,1-.4,1-.4-.2-.4-.6-.4-1.7-.7-2.2-1.8-2.2-5.9-2.2-6.1,1.7-6.1,4.8,1.4,4.4,5.9,7.5l1.3.9c5.5,3.8,7.5,6.9,7.5,10.6s-1,5.4-4.3,7.5c-1.9,1.2-4.8,1.6-7.3,1.6s-4.8-.3-6.6-1.2h0Z"/>
  </g>
  <path class="st1" d="M90.3,168.6h-29.9l18.9-102.4h23.4l-12.4,102.4ZM65.3,164.1h21.4l12.1-93.4h-17.1l-16.4,93.4Z"/>
  <path class="st1" d="M215.2,168.6h-29.9l-10.8-101.9h23.4l17.3,101.9ZM188.9,164.1h21.4l-14.9-93h-17.1l10.7,93h0Z"/>
  <line class="st1" x1="83.6" y1="75.9" x2="67.9" y2="168.6"/>
  <polygon class="st1" points="70 168.6 65.9 168.6 81.9 75.9 85.2 75.9 70 168.6"/>
  <g>
    <line class="st1" x1="181.4" y1="75.9" x2="192.7" y2="168.6"/>
    <polygon class="st1" points="194.8 168.6 190.7 168.6 179.7 75.9 183.1 75.9 194.8 168.6"/>
  </g>
  <path class="st1" d="M153.6,168.6h-29.9l4-101.9h23.4l2.5,101.9ZM128,164.1h21.4l-1.4-93h-17.1l-2.8,93h0Z"/>
  <path class="st1" d="M221.7,61.3h-17l-.4-.3L138.3,12.9l-65.2,48.4h-17.3L138.4,0l83.4,61.3h0ZM204.8,57.3h4.4L138.3,4.6l-70.2,52.7h5L138.3,8.3l66.5,49Z"/>
  <polygon class="st1" points="197 62.8 79.2 62.8 79.9 58.8 196.3 58.8 197 62.8"/>
  <polygon class="st1" points="233.4 177.2 38.8 177.2 40.1 171.5 232.2 171.5 233.4 177.2"/>
  <path class="st1" d="M266,198.7h-9l-2.4-9.5h-6.8l-2.2-9.5H26.9l-2.4,9.5h-6.7l-2.5,9.5H6.6l-6.6,23.6h272.3l-6.3-23.6ZM29.7,185.3h213.1l.9,3.8H28.8s.9-3.8.9-3.8ZM21,194.8h230.6l.9,3.8H20l1-3.8ZM6.7,216.6l3.3-12.3h252.5l3.1,12.3H6.7Z"/>
  <path class="st1" d="M138.6,17l-53.5,39.3h106.1l-52.6-39.3ZM138.5,21.6l40.6,30.7h-81.9l41.4-30.7s-.1,0-.1,0Z"/>
</svg>