<?xml version="1.0" encoding="UTF-8"?>
<svg id="Layer_1" xmlns="http://www.w3.org/2000/svg" version="1.1" viewBox="0 0 26 26">
  <!-- Generator: Adobe Illustrator 30.5.1, SVG Export Plug-In . SVG Version: 2.1.4 Build 3)  -->
  <defs>
    <style>
      .st0 {
        fill: #fff;
      }
    </style>
  </defs>
  <path class="st0" d="M20.5,15.1l-4-2c-.3-.2-.7-.1-1,0l-1.8,1.2c-.8-.5-1.5-1.2-2-2l1.2-1.8c.2-.3.2-.7,0-1l-2-4c-.2-.3-.5-.6-.9-.6-2.8,0-5,2.2-5,5,0,6.1,4.9,11,11,11,2.8,0,5-2.2,5-5,0-.4-.2-.7-.6-.9ZM16,19c-5,0-9-4-9-9,0-1.4,1-2.7,2.4-2.9l1.4,2.9-1.2,1.8c-.2.3-.2.6,0,.9.7,1.7,2.1,3.1,3.8,3.8.3.1.7.1.9,0l1.8-1.2,2.9,1.4c-.3,1.4-1.5,2.4-3,2.4ZM13,0C5.8,0,0,5.8,0,13c0,2.1.5,4.2,1.5,6.1L.1,23.4c-.3,1,.2,2.2,1.3,2.5.4.1.9.1,1.3,0l4.3-1.4c6.3,3.4,14.2,1,17.6-5.4,3.4-6.3,1-14.2-5.4-17.6C17.2.5,15.1,0,13,0ZM13,24c-1.9,0-3.8-.5-5.5-1.5-.2-.1-.5-.2-.8,0l-4.7,1.6,1.6-4.7c0-.3,0-.6,0-.8C.4,13.2,2.2,6.5,7.5,3.5c5.3-3,12-1.2,15,4,3,5.3,1.2,12-4,15-1.7,1-3.6,1.5-5.5,1.5Z"/>
</svg>