<?xml version="1.0" encoding="UTF-8"?>
<svg id="Layer_1" xmlns="http://www.w3.org/2000/svg" version="1.1" viewBox="0 0 64 64">
  <!-- Generator: Adobe Illustrator 30.5.1, SVG Export Plug-In . SVG Version: 2.1.4 Build 3)  -->
  <defs>
    <style>
      .st0 {
        fill: #791c2e;
      }

      .st1 {
        fill: #fff;
      }
    </style>
  </defs>
  <rect class="st0" width="64" height="64" rx="4" ry="4"/>
  <path class="st1" d="M22.9,40.7h-5.9l3.7-20.3h4.6l-2.5,20.3ZM18,39.8h4.2l2.4-18.5h-3.4l-3.2,18.5Z"/>
  <path class="st1" d="M47.6,40.7h-5.9l-2.1-20.2h4.6l3.4,20.2ZM42.4,39.8h4.2l-2.9-18.4h-3.4l2.1,18.4h0Z"/>
  <line class="st1" x1="21.6" y1="22.4" x2="18.5" y2="40.7"/>
  <polygon class="st1" points="18.9 40.7 18.1 40.7 21.3 22.4 21.9 22.4 18.9 40.7"/>
  <g>
    <line class="st1" x1="41" y1="22.4" x2="43.2" y2="40.7"/>
    <polygon class="st1" points="43.6 40.7 42.8 40.7 40.6 22.4 41.3 22.4 43.6 40.7"/>
  </g>
  <path class="st1" d="M35.5,40.7h-5.9l.8-20.2h4.6l.5,20.2ZM30.4,39.8h4.2l-.3-18.4h-3.4l-.6,18.4h0Z"/>
  <path class="st1" d="M48.9,19.5h-3.4c0,0-13.1-9.6-13.1-9.6l-12.9,9.6h-3.4l16.4-12.1,16.5,12.1h0ZM45.6,18.7h.9l-14-10.4-13.9,10.4h1l12.9-9.7,13.2,9.7Z"/>
  <line class="st1" x1="20.8" y1="19.4" x2="44" y2="19.4"/>
  <polygon class="st1" points="44 19.8 20.7 19.8 20.9 19 43.9 19 44 19.8"/>
  <line class="st1" x1="12.9" y1="41.8" x2="51.1" y2="41.8"/>
  <polygon class="st1" points="51.3 42.4 12.7 42.4 13 41.3 51 41.3 51.3 42.4"/>
  <path class="st1" d="M57.7,46.7h-1.8l-.5-1.9h-1.3l-.4-1.9H10.4l-.5,1.9h-1.3l-.5,1.9h-1.7l-1.3,4.7h53.9l-1.2-4.7ZM10.9,44h42.2l.2.8H10.7s.2-.8.2-.8ZM9.2,45.9h45.7l.2.8H9l.2-.8ZM6.4,50.2l.7-2.4h50l.6,2.4H6.4Z"/>
  <path class="st1" d="M32.5,10.7l-10.6,7.8h21l-10.4-7.8ZM32.5,11.6l8,6.1h-16.2l8.2-6.1s0,0,0,0Z"/>
</svg>